{"title":"Swamp Shark 2011 DVDrip English Klam","uid":6358626,"size":1470901909,"categoryP":"video","categoryS":"movies","magnet":"?xt=urn:btih:7da922f689b946a72212c1b774147cf7b4fad3e2&amp;dn=Swamp+Shark+2011+DVDrip+English+Klam&amp;tr=udp%3A%2F%2Ftracker.openbittorrent.com%3A80&amp;tr=udp%3A%2F%2Fopen.demonii.com%3A1337&amp;tr=udp%3A%2F%2Ftracker.coppersurfer.tk%3A6969&amp;tr=udp%3A%2F%2Fexodus.desync.com%3A6969","seeders":0,"leechers":2,"uploader":"Klambake","files":-1,"time":1304244619,"description":"With: Kristy Swanson, Robert Davi and D.B. Sweeney\n\nOpen on gorgeous swamplands of the Atchafalaya Basin in the summer. Lots of beautiful teens are at the beach the weekend before Gator Fest. That night an animal smuggling deal goes wrong and a large sea creature escapes into a swampy backwoods river. At the McDaniel's &quot;Gator Shack&quot; restaurant, a local, Jackson is drunk, and gets mangled to bits. The town sheriff blames the carnage on the McDaniel's &quot;escaped&quot; pack of gators and tries hauling them off to jail. Rachel McDaniel, head of the family, claims to have seen the fin of a shark! Rachel and her family, along with the help of a mysterious stranger, Charlie, take on the Swampshark and the law to clear their names, save Rachel's kid sister Krystal and prevent the unwitting folks at the upcoming Gator Fest from being torn to shreds by a beast the likes of which no one has ever seen!\n\nGeneral:\n\nComplete name                    : Swamp Shark\\Swamp Shark.avi\nFormat                           : AVI\nFormat/Info                      : Audio Video Interleave\nFile size                        : 1.37 GiB\nDuration                         : 1h 25mn\nOverall bit rate                 : 2 302 Kbps\n\nVideo:\n\nFormat                           : MPEG-4 Visual\nFormat profile                   : Simple@L3\nFormat settings, BVOP            : No\nFormat settings, QPel            : No\nFormat settings, GMC             : No warppoints\nFormat settings, Matrix          : Default (H.263)\nCodec ID                         : XVID\nCodec ID/Hint                    : XviD\nDuration                         : 1h 25mn\nBit rate                         : 1 843 Kbps\nWidth                            : 704 pixels\nHeight                           : 396 pixels\nDisplay aspect ratio             : 16:9\nFrame rate                       : 25.000 fps\nColor space                      : YUV\nChroma subsampling               : 4:2:0\nBit depth                        : 8 bits\nScan type                        : Progressive\nCompression mode                 : Lossy\nBits/(Pixel*Frame)               : 0.264\nStream size                      : 1.10 GiB (80%)\nWriting library                  : XviD 1.1.2 (UTC 2006-11-01)\n\nAudio:\n\nFormat                           : AC-3\nFormat/Info                      : Audio Coding 3\nMode extension                   : CM (complete main)\nCodec ID                         : 2000\nDuration                         : 1h 25mn\nBit rate mode                    : Constant\nBit rate                         : 448 Kbps\nChannel(s)                       : 6 channels\nChannel positions                : Front: L C R, Side: L R, LFE\nSampling rate                    : 48.0 KHz\nBit depth                        : 16 bits\nCompression mode                 : Lossy\nStream size                      : 273 MiB (19%)\nAlignment                        : Aligned on interleaves\nInterleave, duration             : 32 ms (0.80 video frame)\n\n","torrent":{"xt":"urn:btih:7da922f689b946a72212c1b774147cf7b4fad3e2","amp;dn":"Swamp+Shark+2011+DVDrip+English+Klam","amp;tr":["udp%3A%2F%2Ftracker.openbittorrent.com%3A80","udp%3A%2F%2Fopen.demonii.com%3A1337","udp%3A%2F%2Ftracker.coppersurfer.tk%3A6969","udp%3A%2F%2Fexodus.desync.com%3A6969"],"infoHash":"7da922f689b946a72212c1b774147cf7b4fad3e2","infoHashBuffer":{"type":"Buffer","data":[125,169,34,246,137,185,70,167,34,18,193,183,116,20,124,247,180,250,211,226]},"announce":[],"urlList":[]}}